<?xml version="1.0" encoding="windows-1252"?>
<!-- Uploaded to: SVG Repo, www.svgrepo.com, Generator: SVG Repo Mixer Tools -->
<!DOCTYPE svg PUBLIC "-//W3C//DTD SVG 1.1//EN" "http://www.w3.org/Graphics/SVG/1.1/DTD/svg11.dtd">
<svg fill="#000000" version="1.1" id="Capa_1" xmlns="http://www.w3.org/2000/svg" xmlns:xlink="http://www.w3.org/1999/xlink" width="800px" height="800px" viewBox="0 0 578.28 578.28" xml:space="preserve">
<g>
	<g>
		<path d="M140.009,362.592c17.142-4.706,30.851-18.408,35.569-35.545H139.66L140.009,362.592z"/>
		<path d="M126.625,225.418c-48.636,0-88.208,39.572-88.208,88.208c0,48.636,39.572,88.208,88.208,88.208    s88.208-39.572,88.208-88.208C214.832,264.99,175.26,225.418,126.625,225.418z M52.407,319.544l-13.941-5.918l13.941-5.918    V319.544z M126.625,225.467l5.918,13.941h-11.836L126.625,225.467z M126.625,401.784l-5.918-13.94h11.836L126.625,401.784z     M183.155,320.927l-0.709,3.647l-0.484,2.473h-0.196c-5.018,20.735-20.979,36.702-41.72,41.721v0.189l-2.405,0.472    c-0.024,0.006-0.043,0.012-0.067,0.018l-3.647,0.71v-0.184c-2.43,0.318-4.872,0.532-7.301,0.532c-2.436,0-4.877-0.22-7.307-0.532    v0.184l-3.647-0.71c-0.024-0.006-0.043-0.012-0.067-0.018l-2.405-0.472v-0.189c-20.734-5.019-36.702-20.985-41.72-41.721h-0.196    l-0.483-2.473l-0.71-3.647h0.178c-0.312-2.436-0.533-4.871-0.533-7.301c0-2.436,0.221-4.872,0.533-7.302h-0.178l0.71-3.647    l0.483-2.472h0.19c5.019-20.741,20.979-36.708,41.72-41.727v-0.196l2.466-0.483h0.006l3.647-0.71v0.184    c4.859-0.624,9.75-0.624,14.608,0v-0.184l3.648,0.71h0.006l2.473,0.483v0.196c20.734,5.019,36.702,20.986,41.72,41.727h0.19    l0.483,2.472l0.71,3.647h-0.178c0.312,2.43,0.533,4.872,0.533,7.302s-0.22,4.871-0.533,7.301H183.155z M200.842,307.708    l13.941,5.918l-13.941,5.918V307.708z"/>
		<path d="M113.197,264.666c-17.124,4.719-30.82,18.415-35.533,35.54h35.533V264.666z"/>
		<path d="M139.66,306.324c-3.164,0-5.734-2.576-5.734-5.74v-37.191c-4.872-0.71-9.749-0.71-14.608,0v37.191    c0,3.164-2.57,5.74-5.734,5.74H76.392c-0.349,2.424-0.526,4.878-0.526,7.302s0.178,4.871,0.526,7.301h37.197    c3.164,0,5.734,2.57,5.734,5.734v37.198c4.847,0.703,9.755,0.703,14.609,0v-37.198c0-3.164,2.57-5.734,5.734-5.734h37.197    c0.349-2.43,0.526-4.877,0.526-7.301s-0.178-4.878-0.526-7.302H139.66z"/>
		<path d="M140.046,264.666v35.918l35.545-0.349C170.884,283.099,157.182,269.384,140.046,264.666z"/>
		<path d="M391.749,245.963l46.022-20.343c1.652-0.729,2.454-2.54,1.793-4.027c-0.453-1.028-1.536-1.689-2.767-1.689    c-0.489,0-0.967,0.104-1.426,0.306l-46.017,20.349c-0.826,0.367-1.463,1.003-1.793,1.799c-0.312,0.741-0.312,1.536,0,2.228    C388.205,246.036,390.127,246.685,391.749,245.963z"/>
		<path d="M395.745,323.032c-11.952,0-21.677,9.73-21.677,21.684c0,11.952,9.725,21.677,21.677,21.677s21.677-9.725,21.677-21.677    C417.422,332.763,407.697,323.032,395.745,323.032z"/>
		<path d="M510.752,266.869c-11.952,0-21.677,9.725-21.677,21.677c0,11.952,9.725,21.684,21.677,21.684s21.677-9.731,21.677-21.684    C532.429,276.593,522.704,266.869,510.752,266.869z"/>
		<path d="M113.197,362.58v-35.919l-35.545,0.355C82.365,344.146,96.067,357.867,113.197,362.58z"/>
		<path d="M490.905,244.886c-19.149,0-42.229,5.998-68.594,17.828c-0.765,0.373-83.923,41.035-79.584,85.301    c3.115,31.774,26.53,46.004,48.354,46.004l0,0c6.523,0,12.698-1.322,17.387-3.728c9.798-5.03,23.262-12.711,34.088-18.88    c10.178-5.802,18.22-10.386,21.041-11.579c0.238-0.129,37.913-18.305,59.554-26.102c11.059-3.979,23.929-14.658,27.748-29.523    c3.311-12.895-1.034-26.628-12.57-39.713C526.866,251.483,510.911,244.886,490.905,244.886z M395.745,372.513    c-15.331,0-27.797-12.467-27.797-27.797c0-15.331,12.473-27.804,27.797-27.804s27.797,12.473,27.797,27.804    C423.542,360.046,411.075,372.513,395.745,372.513z M451.908,341.76c-15.33,0-27.797-12.467-27.797-27.797    c0-15.331,12.473-27.804,27.797-27.804s27.797,12.473,27.797,27.804C479.705,329.293,467.239,341.76,451.908,341.76z     M510.752,316.35c-15.33,0-27.797-12.473-27.797-27.804c0-15.331,12.473-27.797,27.797-27.797s27.797,12.467,27.797,27.797    C538.549,303.877,526.083,316.35,510.752,316.35z"/>
		<path d="M451.908,292.279c-11.952,0-21.677,9.73-21.677,21.684c0,11.952,9.725,21.677,21.677,21.677s21.677-9.725,21.677-21.677    C473.585,302.01,463.867,292.279,451.908,292.279z"/>
		<path d="M307.776,164.573c-0.141-0.349-0.221-0.697-0.392-1.046c-5.692-11.604,26.414-26.793,32.185-35.827    c8.213-12.858,10.013-27.264,4.694-41.64c-5.429-14.669-29.095-8.33-23.605,6.505c8.532,23.054-15.3,30.777-28.721,44.15    c-7.692,7.668-10.489,17.681-9.18,27.54C171.393,165.76,62.591,204.843,20.638,265.81    C-22.153,327.995,8.601,421.602,49.39,463.726c40.784,42.124,88.183,56.934,113-3.568c21.714-52.938,120.735-55.184,126.751-55.27    c6.015,0.086,105.031,2.332,126.75,55.27c24.817,60.502,72.21,45.692,113,3.568c40.784-42.124,71.543-135.729,28.752-197.916    C517.227,207.088,414.79,168.667,307.776,164.573z M381.914,240.008c0.937-2.252,2.705-4.045,4.969-5.043l46.017-20.349    c4.639-2.044,10.306,0.08,12.265,4.504c2.02,4.572-0.184,10-4.921,12.099l-46.022,20.343c-1.242,0.557-2.558,0.833-3.91,0.833    c-3.642,0-6.922-2.093-8.354-5.331C380.972,244.818,380.953,242.309,381.914,240.008z M126.625,407.954    c-52.014,0-94.328-42.314-94.328-94.328c0-52.014,42.314-94.328,94.328-94.328c52.014,0,94.328,42.314,94.328,94.328    C220.952,365.64,178.639,407.954,126.625,407.954z M226.038,269.904l-9.896-5.734v-12.687l9.309-5.385h45.802l8.28-11.854h33.36    l8.378,11.854h46.487l9.357,5.435v12.638l-9.896,5.734H226.038L226.038,269.904z M556.836,305.725    c-4.382,17.045-19.027,29.242-31.604,33.771c-21.341,7.687-58.734,25.729-59.107,25.906c-2.632,1.12-10.931,5.845-20.532,11.328    c-10.876,6.199-24.407,13.904-34.321,18.996c-5.532,2.846-12.705,4.413-20.178,4.413c0,0,0,0-0.006,0    c-24.591,0-50.962-15.937-54.443-51.524c-4.756-48.508,79.505-89.72,83.097-91.446c56.935-25.557,98.888-24.302,123.189,3.274    C559.271,278.993,559.51,295.309,556.836,305.725z"/>
		<polygon points="329.912,254.225 335.157,250.7 319.281,250.7 313.97,254.298 313.97,259.91 328.37,259.91 328.37,262.064     319.062,262.064 313.798,265.59 329.691,265.59 334.839,262.114 334.839,256.385 320.433,256.385 320.433,254.225   "/>
		<rect x="336.846" y="250.7" width="6.469" height="14.89"/>
		<polygon points="361.755,254.225 366.999,250.7 351.124,250.7 345.806,254.298 345.806,259.91 360.212,259.91 360.212,262.064     350.903,262.064 345.641,265.59 361.534,265.59 366.675,262.114 366.675,256.385 352.274,256.385 352.274,254.225   "/>
		<polygon points="299.955,262.064 299.955,259.91 306.154,259.91 311.418,256.385 299.955,256.385 299.955,254.225     309.288,254.225 314.532,250.7 299.122,250.7 293.492,254.151 293.492,265.59 309.165,265.59 314.459,262.064   "/>
		<polygon points="264.025,254.225 269.27,250.7 253.859,250.7 248.229,254.151 248.229,265.59 263.902,265.59 269.196,262.064     254.692,262.064 254.692,259.91 260.891,259.91 266.154,256.385 254.692,256.385 254.692,254.225   "/>
		<polygon points="285.212,255.063 277.274,250.7 270.714,250.7 270.714,265.59 277.177,265.59 277.177,255.651 285.212,260.645     285.212,265.59 291.681,265.59 291.681,250.7 285.212,250.7   "/>
		<polygon points="233.529,259.91 240.096,259.91 240.096,262.064 232.06,262.064 232.06,254.225 243.278,254.225 248.498,250.7     230.958,250.7 225.597,254.323 225.597,265.59 241.613,265.59 246.558,262.26 246.558,256.385 238.773,256.385   "/>
	</g>
</g>
</svg>